<?xml version="1.0" encoding="utf-8"?>
<!-- Generator: Adobe Illustrator 27.0.1, SVG Export Plug-In . SVG Version: 6.00 Build 0)  -->
<svg version="1.1" id="Layer_1" xmlns="http://www.w3.org/2000/svg" xmlns:xlink="http://www.w3.org/1999/xlink" x="0px" y="0px"
	 viewBox="0 0 586 229" style="enable-background:new 0 0 586 229;" xml:space="preserve">
<g>
	<path d="M263.15,53.83c-10.41-5.79-21.93-8.69-34.55-8.69c-12.49,0-23.98,2.9-34.46,8.69c-10.48,5.79-18.78,13.89-24.9,24.28
		s-9.18,22.14-9.18,35.23c0,13.1,3.06,24.84,9.18,35.23c6.12,10.39,14.42,18.51,24.9,24.37c10.47,5.86,21.96,8.78,34.46,8.78
		s23.98-2.93,34.46-8.78c10.47-5.86,18.74-13.98,24.8-24.37c6.06-10.39,9.09-22.13,9.09-35.23c-0.01-13.09-3.03-24.83-9.09-35.23
		C281.8,67.72,273.57,59.63,263.15,53.83z"/>
	<polygon points="347.77,38 304.8,38 304.8,182 340.34,182 340.34,101.93 364.63,182 394.36,182 418.47,102.54 418.47,182 454,182 
		454,38 411.22,38 	"/>
	<polygon points="110.5,72 60.12,72 60.12,45.23 18.8,45.23 18.8,178.41 60.12,178.41 60.12,160 110.5,160 110.5,178.41 
		151.82,178.41 151.82,45.23 110.5,45.23 	"/>
	<polygon points="560.88,74.89 560.88,45.23 465.8,45.23 465.8,178.41 560.88,178.41 560.88,148.75 534,148.75 534,124.76 
		554.55,124.76 554.55,96.61 534,96.61 534,74.89 	"/>
</g>
</svg>
